<svg width="319" height="114" viewBox="0 0 319 114" fill="none" xmlns="http://www.w3.org/2000/svg">
<path d="M160 90L173.856 114H146.144L160 90Z" fill="white"/>
<path d="M160 24L146.144 0L173.856 0L160 24Z" fill="white"/>
<path d="M0.1075 59.408C0.1075 46.352 10.7955 35.792 23.9155 35.792C29.3555 35.792 34.5395 37.52 38.9555 41.232L33.6435 49.04C30.6355 46.352 27.8195 44.944 23.9795 44.944C16.1075 44.944 9.7715 51.472 9.7715 59.472C9.7715 67.152 16.1075 73.68 23.5315 73.68C28.0115 73.68 31.7875 71.44 33.8355 68.304V64.528H21.7395V55.248H42.8595V71.44C39.3395 78.8 32.1075 82.896 23.4675 82.896C10.6035 82.896 0.1075 72.336 0.1075 59.408ZM101.653 36.368H119.317C129.621 36.368 135.957 41.104 135.957 50.32C135.957 56.208 132.757 61.008 127.573 63.056L141.077 82H129.301L117.077 64.144H111.317V82H101.653V36.368ZM120.213 55.248C124.501 55.248 126.613 53.584 126.613 50.32C126.613 46.416 123.733 45.648 119.957 45.648H111.317V55.248H120.213ZM144.965 36.368H161.797C171.461 36.368 177.093 41.552 177.093 49.936C177.093 52.688 176.517 55.056 175.301 56.976C178.757 59.472 180.805 63.376 180.805 67.984C180.805 76.368 174.725 82 164.421 82H144.965V36.368ZM162.245 54.352C166.149 54.352 167.749 53.008 167.749 50C167.749 47.12 166.597 45.648 162.501 45.648H154.565V54.352H162.245ZM164.165 72.784C169.285 72.784 171.333 71.056 171.333 67.92C171.333 65.04 169.797 63.12 163.525 63.12H154.565V72.784H164.165ZM238.108 59.408C238.108 46.352 248.796 35.792 261.916 35.792C267.356 35.792 272.54 37.52 276.956 41.232L271.644 49.04C268.636 46.352 265.82 44.944 261.98 44.944C254.108 44.944 247.772 51.472 247.772 59.472C247.772 67.152 254.108 73.68 261.532 73.68C266.012 73.68 269.788 71.44 271.836 68.304V64.528H259.74V55.248H280.86V71.44C277.34 78.8 270.108 82.896 261.468 82.896C248.604 82.896 238.108 72.336 238.108 59.408ZM286.59 36.368H318.718V45.648H295.998V53.328H314.75V62.544H295.998V72.784H318.718V82H286.59V36.368Z" fill="white"/>
<rect x="66.7283" y="40.5331" width="8.90973" height="44.5487" transform="rotate(-25 66.7283 40.5331)" fill="white"/>
<rect x="206.158" y="39.8496" width="8.90973" height="44.5487" transform="rotate(-25 206.158 39.8496)" fill="white"/>
<rect x="67.7358" y="36.7676" width="8.90973" height="44.5487" transform="rotate(25 67.7358 36.7676)" fill="white"/>
<rect x="207.166" y="36.084" width="8.90973" height="44.5487" transform="rotate(25 207.166 36.084)" fill="white"/>
<path d="M67.7461 36.7676H74.8052L71.1832 38.5495L67.7461 36.7676Z" fill="white"/>
<path d="M207.176 36.084H214.235L210.613 37.8659L207.176 36.084Z" fill="white"/>
<path d="M46.2349 81.9L48.9087 77.1282L56.9913 80.8888L56.6135 82L46.2349 81.9Z" fill="white"/>
<path d="M185.665 81.2164L188.338 76.4446L196.421 80.2052L196.043 81.3164L185.665 81.2164Z" fill="white"/>
<path d="M95.8938 81.2243L93.2574 76.4272L85.2047 80.1491L85.7116 81.3163L95.8938 81.2243Z" fill="white"/>
<path d="M235.323 80.5407L232.687 75.7437L224.634 79.4655L225.141 80.6327L235.323 80.5407Z" fill="white"/>
</svg>
