<svg width="319" height="114" viewBox="0 0 319 114" fill="none" xmlns="http://www.w3.org/2000/svg">
    <path d="M160 90L173.856 114H146.144L160 90Z" fill="white"/>
    <path d="M160 24L146.144 0L173.856 0L160 24Z" fill="white"/>
    <path d="M0.1075 57.408C0.1075 44.352 10.7955 33.792 23.9155 33.792C29.3555 33.792 34.5395 35.52 38.9555 39.232L33.6435 47.04C30.6355 44.352 27.8195 42.944 23.9795 42.944C16.1075 42.944 9.7715 49.472 9.7715 57.472C9.7715 65.152 16.1075 71.68 23.5315 71.68C28.0115 71.68 31.7875 69.44 33.8355 66.304V62.528H21.7395V53.248H42.8595V69.44C39.3395 76.8 32.1075 80.896 23.4675 80.896C10.6035 80.896 0.1075 70.336 0.1075 57.408ZM101.653 34.368H119.317C129.621 34.368 135.957 39.104 135.957 48.32C135.957 54.208 132.757 59.008 127.573 61.056L141.077 80H129.301L117.077 62.144H111.317V80H101.653V34.368ZM120.213 53.248C124.501 53.248 126.613 51.584 126.613 48.32C126.613 44.416 123.733 43.648 119.957 43.648H111.317V53.248H120.213ZM144.965 34.368H161.797C171.461 34.368 177.093 39.552 177.093 47.936C177.093 50.688 176.517 53.056 175.301 54.976C178.757 57.472 180.805 61.376 180.805 65.984C180.805 74.368 174.725 80 164.421 80H144.965V34.368ZM162.245 52.352C166.149 52.352 167.749 51.008 167.749 48C167.749 45.12 166.597 43.648 162.501 43.648H154.565V52.352H162.245ZM164.165 70.784C169.285 70.784 171.333 69.056 171.333 65.92C171.333 63.04 169.797 61.12 163.525 61.12H154.565V70.784H164.165ZM238.108 57.408C238.108 44.352 248.796 33.792 261.916 33.792C267.356 33.792 272.54 35.52 276.956 39.232L271.644 47.04C268.636 44.352 265.82 42.944 261.98 42.944C254.108 42.944 247.772 49.472 247.772 57.472C247.772 65.152 254.108 71.68 261.532 71.68C266.012 71.68 269.788 69.44 271.836 66.304V62.528H259.74V53.248H280.86V69.44C277.34 76.8 270.108 80.896 261.468 80.896C248.604 80.896 238.108 70.336 238.108 57.408ZM286.59 34.368H318.718V43.648H295.998V51.328H314.75V60.544H295.998V70.784H318.718V80H286.59V34.368Z" fill="white"/>
    <rect x="65.9009" y="38.533" width="8.90973" height="44.5487" transform="rotate(-25 65.9009 38.533)" fill="white"/>
    <rect x="205.119" y="38.533" width="8.90973" height="44.5487" transform="rotate(-25 205.119 38.533)" fill="white"/>
    <rect x="66.9087" y="34.7673" width="8.90973" height="44.5487" transform="rotate(25 66.9087 34.7673)" fill="white"/>
    <rect x="206.127" y="34.7673" width="8.90973" height="44.5487" transform="rotate(25 206.127 34.7673)" fill="white"/>
    <path d="M66.9189 34.7673H73.9781L70.356 36.5493L66.9189 34.7673Z" fill="white"/>
    <path d="M206.137 34.7673H213.196L209.574 36.5493L206.137 34.7673Z" fill="white"/>
    <path d="M95.1055 79.9999L92.4071 74.3096L84.5273 78.4746L85.2382 79.9999H95.1055Z" fill="white"/>
    <path d="M234.323 79.9999L231.625 74.3096L223.745 78.4746L224.456 79.9999H234.323Z" fill="white"/>
    <path d="M45.7771 79.9999L48.4754 74.3096L56.3553 78.4746L55.6443 79.9999H45.7771Z" fill="white"/>
    <path d="M184.995 79.9999L187.693 74.3096L195.573 78.4746L194.862 79.9999H184.995Z" fill="white"/>
</svg>
